<?xml version="1.0" encoding="iso-8859-1"?>
<!-- Uploaded to: SVG Repo, www.svgrepo.com, Generator: SVG Repo Mixer Tools -->
<svg height="800px" width="800px" version="1.1" id="Layer_1" xmlns="http://www.w3.org/2000/svg" xmlns:xlink="http://www.w3.org/1999/xlink" 
	 viewBox="0 0 512 512" xml:space="preserve">
<path style="fill:#4D4E5C;" d="M322.045,445.955C426.786,445.955,512,360.742,512,256S426.787,66.045,322.045,66.045h-32.852v379.91
	H322.045z"/>
<path style="fill:#626375;" d="M289.193,445.955c-104.741,0-189.955-85.213-189.955-189.955S184.451,66.045,289.193,66.045
	S479.148,151.258,479.148,256C479.148,360.742,393.935,445.955,289.193,445.955z"/>
<path style="fill:#7DD2F0;" d="M289.193,397.814c-78.197,0-141.814-63.617-141.814-141.814s63.617-141.815,141.814-141.815
	S431.007,177.803,431.007,256S367.39,397.814,289.193,397.814z"/>
<path style="fill:#FFD782;" d="M289.193,349.675c-51.652,0-93.675-42.022-93.675-93.675s42.022-93.675,93.675-93.675
	c51.651,0,93.675,42.022,93.675,93.675C382.868,307.652,340.845,349.675,289.193,349.675z"/>
<circle style="fill:#FF6465;" cx="289.198" cy="255.996" r="45.534"/>
<path style="fill:#946C55;" d="M289.193,264.213H59.315c-4.537,0-8.213-3.677-8.213-8.213s3.676-8.213,8.213-8.213h229.878
	c4.537,0,8.213,3.677,8.213,8.213S293.73,264.213,289.193,264.213z"/>
<polygon style="fill:#FF8080;" points="76.836,256 21.901,256 0,216.051 54.934,216.051 "/>
<polygon style="fill:#FF6465;" points="76.836,256 21.901,256 0,295.949 54.934,295.949 "/>
</svg>