<?xml version="1.0" encoding="iso-8859-1"?>
<!-- Uploaded to: SVG Repo, www.svgrepo.com, Generator: SVG Repo Mixer Tools -->
<!DOCTYPE svg PUBLIC "-//W3C//DTD SVG 1.1//EN" "http://www.w3.org/Graphics/SVG/1.1/DTD/svg11.dtd">
<svg fill="#000000" version="1.1" id="Capa_1" xmlns="http://www.w3.org/2000/svg" xmlns:xlink="http://www.w3.org/1999/xlink" 
	 width="800px" height="800px" viewBox="0 0 32 32" xml:space="preserve">
<g>
	<g>
		<circle cx="11.167" cy="12" r="2.333"/>
		<path d="M21.212,20.404c-3.373-1.092-7.051-1.092-10.424,0C10,20.66,9.567,21.506,9.823,22.294c0.254,0.788,1.1,1.222,1.889,0.965
			c2.775-0.897,5.802-0.897,8.576,0c0.151,0.05,0.31,0.073,0.462,0.073c0.633,0,1.223-0.404,1.427-1.039
			C22.434,21.506,22,20.661,21.212,20.404z"/>
		<path d="M16,0C7.178,0,0,7.178,0,16s7.178,16,16,16c8.82,0,16-7.178,16-16S24.82,0,16,0z M16,29C8.832,29,3,23.168,3,16
			S8.832,3,16,3s13,5.832,13,13S23.168,29,16,29z"/>
		<circle cx="20.834" cy="12" r="2.333"/>
	</g>
</g>
</svg>